<svg xmlns="http://www.w3.org/2000/svg" version="1.1" xmlns:xlink="http://www.w3.org/1999/xlink" xmlns:svgjs="http://svgjs.dev/svgjs" width="1500" height="488" viewBox="0 0 1500 488"><g transform="matrix(1,0,0,1,-0.9090891928766496,-0.22427566288294543)"><svg viewBox="0 0 396 129" data-background-color="#ffffff" preserveAspectRatio="xMidYMid meet" height="488" width="1500" xmlns="http://www.w3.org/2000/svg" xmlns:xlink="http://www.w3.org/1999/xlink"><g id="tight-bounds" transform="matrix(1,0,0,1,0.23999954691942094,0.059285984655531365)"><svg viewBox="0 0 395.52 128.88142803068894" height="128.88142803068894" width="395.52"><g><svg viewBox="0 0 614.0423279838644 200.08761150346157" height="128.88142803068894" width="395.52"><g transform="matrix(1,0,0,1,218.5223279838645,27.653208246860473)"><svg viewBox="0 0 395.52 144.78119500974063" height="144.78119500974063" width="395.52"><g id="textblocktransform"><svg viewBox="0 0 395.52 144.78119500974063" height="144.78119500974063" width="395.52" id="textblock"><g><svg viewBox="0 0 395.52 78.08805842357089" height="78.08805842357089" width="395.52"><g transform="matrix(1,0,0,1,0,0)"><svg width="395.52" viewBox="1.5 -38.4 198.54 39.199999999999996" height="78.08805842357089" data-palette-color="#ff4136"><path d="M29.25-25.05L29.25-25.05Q29.25-22.25 28-20.25 26.75-18.25 24.6-17.2L24.6-17.2Q20.65-15.3 15.05-15.3L15.05-15.3Q14.1-15.3 12.4-15.4L12.4-15.4 12.4-1.65 16.2-1.2 16.2 0 2.05 0 2.05-1.2 5.8-1.65 5.8-31.85 1.5-32.35 1.5-33.5 11.45-33.5 17.3-33.65Q23.5-33.6 26.38-31.45 29.25-29.3 29.25-25.05ZM13.8-16.85L13.8-16.85Q17.9-16.85 20.1-19.07 22.3-21.3 22.3-25 22.3-28.7 20.75-30.43 19.2-32.15 15.85-32.15L15.85-32.15Q13.5-32.15 12.4-31.95L12.4-31.95 12.4-16.95Q13.3-16.85 13.8-16.85ZM53.75-3.05Q50.25 0.55 44.2 0.55 38.15 0.55 34.65-3.05 31.15-6.65 31.15-12.2 31.15-17.75 34.65-21.35 38.15-24.95 44.2-24.95 50.25-24.95 53.75-21.35 57.25-17.75 57.25-12.2 57.25-6.65 53.75-3.05ZM38.1-12.2Q38.1-0.65 44.2-0.65 50.3-0.65 50.3-12.2L50.3-12.2Q50.3-17.85 48.95-20.78 47.6-23.7 44.2-23.7 40.8-23.7 39.45-20.78 38.1-17.85 38.1-12.2L38.1-12.2ZM77.14-23.1L77.14-24.4 86.94-24.4 86.94-23.1 83.25-22.15 74.05-14.45 85.15-1.5 88.5-1.15 88.5 0 75.75 0 75.75-1.15 78.55-1.45 69.75-11.55 69.75-1.5 72.5-1.15 72.5 0 60.09 0 60.09-1.15 63.34-1.45 63.34-36 59.05-36.3 59.05-37.55 69.75-38.4 69.75-12.95 80.4-22.15 77.14-23.1ZM104.99-17.45L104.99-17.45Q104.99-23.55 100.74-23.55L100.74-23.55Q96.29-23.55 95.34-15.75L95.34-15.75 104.89-15.75Q104.99-16.75 104.99-17.45ZM100.29 0.55L100.29 0.55Q94.94 0.55 91.62-2.95 88.29-6.45 88.29-12.2 88.29-17.95 91.77-21.45 95.24-24.95 100.59-24.95 105.94-24.95 108.59-22.68 111.24-20.4 111.24-16.35L111.24-16.35Q111.24-15.2 111.04-13.95L111.04-13.95 95.19-13.95 95.19-12.2Q95.19-6.6 96.59-3.73 97.99-0.85 100.82-0.85 103.64-0.85 105.97-2.02 108.29-3.2 109.59-5.35L109.59-5.35Q110.69-5 110.69-4.3L110.69-4.3Q110.69-3.05 108.34-1.4L108.34-1.4Q107.19-0.6 105.07-0.03 102.94 0.55 100.29 0.55ZM125.69 0.75L125.69 0.75Q121.14 0.75 118.14-2.3 115.14-5.35 115.14-11.5 115.14-17.65 118.72-21.2 122.29-24.75 128.24-24.75L128.24-24.75Q131.34-24.75 134.09-23.3L134.09-23.3 134.09-36 129.79-36.3 129.79-37.55 140.49-38.4 140.49-1.15 144.74-0.95 144.79 0.2 134.34 0.8 134.44-3.7 134.14-3.7Q132.89-1.6 130.59-0.43 128.29 0.75 125.69 0.75ZM134.04-7.7L134.04-7.7 134.04-21.45Q132.04-23.3 128.94-23.3L128.94-23.3Q124.99-23.3 123.54-19.65L123.54-19.65Q122.34-16.45 122.34-11.5L122.34-11.5Q122.34-0.85 127.09-0.85L127.09-0.85Q129.89-0.85 131.97-3.25 134.04-5.65 134.04-7.7ZM163.44-17.45L163.44-17.45Q163.44-23.55 159.19-23.55L159.19-23.55Q154.74-23.55 153.79-15.75L153.79-15.75 163.34-15.75Q163.44-16.75 163.44-17.45ZM158.74 0.55L158.74 0.55Q153.39 0.55 150.06-2.95 146.74-6.45 146.74-12.2 146.74-17.95 150.21-21.45 153.69-24.95 159.04-24.95 164.39-24.95 167.04-22.68 169.69-20.4 169.69-16.35L169.69-16.35Q169.69-15.2 169.49-13.95L169.49-13.95 153.64-13.95 153.64-12.2Q153.64-6.6 155.04-3.73 156.44-0.85 159.26-0.85 162.09-0.85 164.41-2.02 166.74-3.2 168.04-5.35L168.04-5.35Q169.14-5 169.14-4.3L169.14-4.3Q169.14-3.05 166.79-1.4L166.79-1.4Q165.64-0.6 163.51-0.03 161.39 0.55 158.74 0.55ZM181.69-1.25L181.69 0 172.09 0 172.09-1.25 175.59-2.2 183.29-11.3 174.19-22.9 171.79-23.15 171.79-24.4 183.89-24.4 183.84-23.2 180.94-22.8 187.44-14.35 193.94-22.2 190.09-23.15 190.09-24.4 199.69-24.4 199.69-23.15 196.19-22.2 188.44-12.9 197.19-1.5 200.04-1.25 200.04 0 187.49 0 187.49-1.15 190.39-1.55 184.24-9.75 177.99-2.2 181.69-1.25Z" opacity="1" transform="matrix(1,0,0,1,0,0)" fill="#ff4136" class="wordmark-text-0" data-fill-palette-color="primary" id="text-0"></path></svg></g></svg></g><g transform="matrix(1,0,0,1,0,96.52277490397381)"><svg viewBox="0 0 395.52 48.25842010576682" height="48.25842010576682" width="395.52"><g transform="matrix(1,0,0,1,0,0)"><svg width="395.52" viewBox="0.2 -35.2 362.2596478343 44.2" height="48.25842010576682" data-palette-color="#0074d9"><path d="M17.85-35.2L17.85-35.2Q20.75-35.2 24.03-34.8 27.3-34.4 30.2-33.4L30.2-33.4 29.25-26.5Q27.75-26.55 25.73-26.55 23.7-26.55 21.5-26.58 19.3-26.6 17.15-26.6L17.15-26.6Q16.3-26.6 15.7-26.53 15.1-26.45 14.7-26.3 14.3-26.15 14.08-25.88 13.85-25.6 13.75-25.2L13.75-25.2Q13.7-24.85 13.83-24.5 13.95-24.15 14.45-23.8 14.95-23.45 15.95-22.95L15.95-22.95 21.75-20.2Q24.6-18.85 26.05-17.35 27.5-15.85 27.93-13.93 28.35-12 28.05-9.45L28.05-9.45Q27.6-5.5 26.1-3.28 24.6-1.05 21.63-0.18 18.65 0.7 13.65 0.7L13.65 0.7Q11.5 0.7 7.83 0.33 4.15-0.05 0.2-1.05L0.2-1.05 1.2-8.6Q4.1-8.55 6.58-8.47 9.05-8.4 10.75-8.38 12.45-8.35 13.1-8.35L13.1-8.35Q14.65-8.35 15.53-8.5 16.4-8.65 16.82-8.97 17.25-9.3 17.35-9.8L17.35-9.8Q17.45-10.25 17.32-10.55 17.2-10.85 16.8-11.13 16.4-11.4 15.7-11.75L15.7-11.75 9.4-14.85Q6.5-16.3 5.05-17.93 3.6-19.55 3.2-21.45 2.8-23.35 3.05-25.45L3.05-25.45Q3.4-28.3 4.42-30.2 5.45-32.1 7.25-33.18 9.05-34.25 11.7-34.73 14.35-35.2 17.85-35.2ZM54.09-25.7L54.09-25.7Q56.14-25.7 57.74-24.9 59.34-24.1 60.14-22.5 60.94-20.9 60.59-18.5L60.59-18.5 57.99 0 47.44 0 49.59-15.1Q49.74-16.1 49.49-16.53 49.24-16.95 48.24-16.85L48.24-16.85Q47.34-16.8 46.14-16.3 44.94-15.8 43.19-14.35L43.19-14.35 41.44-18.7Q43.94-21.9 47.36-23.8 50.79-25.7 54.09-25.7ZM34.69-25L42.89-25 43.24-18.3 44.24-17.7 41.74 0 31.24 0 34.69-25ZM80.72-25.7L80.72-25.7Q82.02-25.7 83.8-25.55 85.57-25.4 87.4-25.15 89.22-24.9 90.7-24.63 92.17-24.35 92.87-24.1L92.87-24.1 84.72-18.8Q83.47-18.85 82.32-18.85 81.17-18.85 79.42-18.85L79.42-18.85Q78.62-18.85 77.92-18.68 77.22-18.5 76.67-17.98 76.12-17.45 75.67-16.38 75.22-15.3 74.97-13.5L74.97-13.5Q74.62-10.95 74.5-9.63 74.37-8.3 74.72-7.85 75.07-7.4 76.02-7.45L76.02-7.45Q76.97-7.55 78.12-8.47 79.27-9.4 80.32-10.83 81.37-12.25 82.02-13.85L82.02-13.85 83.72-11.05Q82.97-7.4 81.3-4.88 79.62-2.35 77.17-1 74.72 0.35 71.52 0.6L71.52 0.6Q67.92 0.85 66.12-0.8 64.32-2.45 63.97-5.65 63.62-8.85 64.27-13.2L64.27-13.2Q64.97-17.65 66.35-20.18 67.72-22.7 69.8-23.88 71.87-25.05 74.62-25.38 77.37-25.7 80.72-25.7ZM79.92-6.25L82.62-25 92.87-24.1 89.47 0 81.37 0 81.27-5.45 79.92-6.25ZM116.66-25.6L116.66-25.6Q119.51-25.6 121.26-24.03 123.01-22.45 123.64-19.4 124.26-16.35 123.66-11.8L123.66-11.8Q123.16-7.9 122.11-5.45 121.06-3 119.56-1.68 118.06-0.35 116.16 0.18 114.26 0.7 112.01 0.7L112.01 0.7Q110.81 0.7 109.19 0.58 107.56 0.45 105.84 0.18 104.11-0.1 102.64-0.58 101.16-1.05 100.26-1.75L100.26-1.75 101.26-5.65Q103.01-5.65 104.54-5.65 106.06-5.65 108.51-5.65L108.51-5.65Q109.76-5.65 110.51-5.9 111.26-6.15 111.69-6.78 112.11-7.4 112.39-8.55 112.66-9.7 112.91-11.5L112.91-11.5Q113.26-13.95 113.29-15.25 113.31-16.55 112.96-17.05 112.61-17.55 111.81-17.55L111.81-17.55Q111.01-17.55 110.04-17.1 109.06-16.65 108.16-15.93 107.26-15.2 106.66-14.35L106.66-14.35 104.76-18.35Q105.26-19.1 106.34-20.3 107.41-21.5 108.99-22.73 110.56-23.95 112.51-24.78 114.46-25.6 116.66-25.6ZM98.26-25L106.61-25 106.61-18.7 107.71-17.9 105.66-1.35 105.11-0.55Q105.16 0.7 105.09 1.98 105.01 3.25 104.76 4.7L104.76 4.7 104.06 9 93.56 9 98.26-25ZM156.54-35.2L156.54-35.2Q158.39-35.2 160.66-34.98 162.94-34.75 165.09-34L165.09-34 163.44-27.05Q161.99-27.3 160.26-27.48 158.54-27.65 156.89-27.65L156.89-27.65Q155.49-27.65 154.64-27.43 153.79-27.2 153.36-26.5 152.94-25.8 152.74-24.4L152.74-24.4Q152.59-23.05 152.76-22.3 152.94-21.55 153.54-21.25 154.14-20.95 155.14-20.95L155.14-20.95 175.99-20.95 175.04-14.4 154.19-14.4Q153.14-14.4 152.31-14.1 151.49-13.8 150.99-13 150.49-12.2 150.29-10.65L150.29-10.65Q150.19-9.75 150.36-9.13 150.54-8.5 150.96-8.15 151.39-7.8 152.09-7.65 152.79-7.5 153.69-7.5L153.69-7.5Q156.04-7.5 158.06-8.4 160.09-9.3 161.49-12.35L161.49-12.35Q162.44-14.35 162.99-17.45 163.54-20.55 163.69-25.1L163.69-25.1 172.29-25.1Q172.24-20.75 171.69-16.73 171.14-12.7 169.64-9.35L169.64-9.35Q168.29-6.3 165.96-4.05 163.64-1.8 160.01-0.55 156.39 0.7 151.14 0.7L151.14 0.7Q146.39 0.7 143.49-0.4 140.59-1.5 139.44-3.7 138.29-5.9 138.69-9.2L138.69-9.2Q138.99-11.5 139.89-13.38 140.79-15.25 142.44-16.45 144.09-17.65 146.59-17.75L146.59-17.75 146.64-18.05Q144.99-18.2 143.84-19.4 142.69-20.6 142.24-22.48 141.79-24.35 142.14-26.4L142.14-26.4Q142.84-30.3 144.84-32.18 146.84-34.05 149.84-34.63 152.84-35.2 156.54-35.2ZM206.16-35.2L206.16-35.2Q209.06-35.2 212.34-34.8 215.61-34.4 218.51-33.4L218.51-33.4 217.56-26.5Q216.06-26.55 214.04-26.55 212.01-26.55 209.81-26.58 207.61-26.6 205.46-26.6L205.46-26.6Q204.61-26.6 204.01-26.53 203.41-26.45 203.01-26.3 202.61-26.15 202.39-25.88 202.16-25.6 202.06-25.2L202.06-25.2Q202.01-24.85 202.14-24.5 202.26-24.15 202.76-23.8 203.26-23.45 204.26-22.95L204.26-22.95 210.06-20.2Q212.91-18.85 214.36-17.35 215.81-15.85 216.24-13.93 216.66-12 216.36-9.45L216.36-9.45Q215.91-5.5 214.41-3.28 212.91-1.05 209.94-0.18 206.96 0.7 201.96 0.7L201.96 0.7Q199.81 0.7 196.14 0.33 192.46-0.05 188.51-1.05L188.51-1.05 189.51-8.6Q192.41-8.55 194.89-8.47 197.36-8.4 199.06-8.38 200.76-8.35 201.41-8.35L201.41-8.35Q202.96-8.35 203.84-8.5 204.71-8.65 205.14-8.97 205.56-9.3 205.66-9.8L205.66-9.8Q205.76-10.25 205.64-10.55 205.51-10.85 205.11-11.13 204.71-11.4 204.01-11.75L204.01-11.75 197.71-14.85Q194.81-16.3 193.36-17.93 191.91-19.55 191.51-21.45 191.11-23.35 191.36-25.45L191.36-25.45Q191.71-28.3 192.74-30.2 193.76-32.1 195.56-33.18 197.36-34.25 200.01-34.73 202.66-35.2 206.16-35.2ZM235.7-25.7L235.7-25.7Q240.9-25.7 243.75-24.63 246.6-23.55 247.57-21.5 248.55-19.45 248.1-16.4L248.1-16.4Q247.8-14.15 246.55-12.9 245.3-11.65 243.07-11.05 240.85-10.45 237.45-10.2L237.45-10.2 224.15-9.2 224.8-14.15 234.7-15.15Q235.75-15.25 236.45-15.43 237.15-15.6 237.57-16.05 238-16.5 238.1-17.45L238.1-17.45Q238.15-18 238-18.35 237.85-18.7 237.35-18.85 236.85-19 235.8-18.95L235.8-18.95Q234.75-18.95 234.05-18.68 233.35-18.4 232.9-17.78 232.45-17.15 232.12-16 231.8-14.85 231.5-13.05L231.5-13.05Q231.1-10.6 231.22-9.4 231.35-8.2 232.2-7.83 233.05-7.45 234.75-7.45L234.75-7.45Q235.8-7.45 237.62-7.53 239.45-7.6 241.47-7.73 243.5-7.85 245-8L245-8 245.7-1.6Q243.95-0.8 241.95-0.3 239.95 0.2 237.9 0.4 235.85 0.6 233.85 0.6L233.85 0.6Q228.15 0.6 225.1-0.95 222.05-2.5 221.05-5.48 220.05-8.45 220.45-12.7L220.45-12.7Q220.85-16.7 222.05-19.25 223.25-21.8 225.15-23.2 227.05-24.6 229.7-25.15 232.35-25.7 235.7-25.7ZM267.59-25.7L267.59-25.7Q268.89-25.7 270.66-25.55 272.44-25.4 274.26-25.15 276.09-24.9 277.56-24.63 279.04-24.35 279.74-24.1L279.74-24.1 271.59-18.8Q270.34-18.85 269.19-18.85 268.04-18.85 266.29-18.85L266.29-18.85Q265.49-18.85 264.79-18.68 264.09-18.5 263.54-17.98 262.99-17.45 262.54-16.38 262.09-15.3 261.84-13.5L261.84-13.5Q261.49-10.95 261.36-9.63 261.24-8.3 261.59-7.85 261.94-7.4 262.89-7.45L262.89-7.45Q263.84-7.55 264.99-8.47 266.14-9.4 267.19-10.83 268.24-12.25 268.89-13.85L268.89-13.85 270.59-11.05Q269.84-7.4 268.16-4.88 266.49-2.35 264.04-1 261.59 0.35 258.39 0.6L258.39 0.6Q254.79 0.85 252.99-0.8 251.19-2.45 250.84-5.65 250.49-8.85 251.14-13.2L251.14-13.2Q251.84-17.65 253.21-20.18 254.59-22.7 256.66-23.88 258.74-25.05 261.49-25.38 264.24-25.7 267.59-25.7ZM266.79-6.25L269.49-25 279.74-24.1 276.34 0 268.24 0 268.14-5.45 266.79-6.25ZM285.17-25L293.37-25 293.87-19.9 294.82-19.3 292.22 0 281.67 0 285.17-25ZM303.67-25.7L305.47-25.7 303.32-16.1 300.97-16.1Q299.62-16.1 297.97-15.95 296.32-15.8 293.62-15.35L293.62-15.35 293.22-21.2Q295.97-23.55 298.62-24.63 301.27-25.7 303.67-25.7L303.67-25.7ZM320.26-25.7L320.26-25.7Q323.16-25.7 326.26-25.23 329.36-24.75 331.71-23.75L331.71-23.75 330.31-17.35Q327.51-17.35 325.31-17.35 323.11-17.35 321.51-17.35L321.51-17.35Q320.01-17.35 319.14-16.9 318.26-16.45 317.81-15.43 317.36-14.4 317.11-12.65L317.11-12.65Q316.81-10.6 316.99-9.53 317.16-8.45 317.94-8.08 318.71-7.7 320.21-7.7L320.21-7.7Q321.21-7.7 322.56-7.73 323.91-7.75 325.49-7.83 327.06-7.9 328.61-8.05L328.61-8.05 329.36-1.4Q326.91-0.25 323.99 0.18 321.06 0.6 318.36 0.6L318.36 0.6Q313.96 0.6 310.99-0.75 308.01-2.1 306.76-5.1 305.51-8.1 306.16-12.95L306.16-12.95Q306.81-17.45 308.31-20.25 309.81-23.05 312.69-24.38 315.56-25.7 320.26-25.7ZM355.45-25.7L355.45-25.7Q359.3-25.7 361.07-23.83 362.85-21.95 362.35-18.5L362.35-18.5 359.75 0 349.25 0 351.45-15.55Q351.6-16.4 351.4-16.63 351.2-16.85 350.5-16.85L350.5-16.85Q349.3-16.85 348.1-16.35 346.9-15.85 345-14.35L345-14.35 343.25-18.7Q346.5-22.35 349.65-24.03 352.8-25.7 355.45-25.7ZM337.95-35L348.45-35 347.4-27.35Q347.05-24.65 346.22-22.18 345.4-19.7 344.75-18.25L344.75-18.25 346-17.8 343.55 0 333.05 0 337.95-35Z" opacity="1" transform="matrix(1,0,0,1,0,0)" fill="#0074d9" class="slogan-text-1" data-fill-palette-color="secondary" id="text-1"></path></svg></g></svg></g></svg></g></svg></g><g><svg viewBox="0 0 200.08761150346157 200.08761150346157" height="200.08761150346157" width="200.08761150346157"><g><svg xmlns="http://www.w3.org/2000/svg" xmlns:xlink="http://www.w3.org/1999/xlink" version="1.1" x="0" y="0" viewBox="17.5 18.3 65 65" enable-background="new 0 0 100 100" xml:space="preserve" height="200.08761150346157" width="200.08761150346157" class="icon-icon-0" data-fill-palette-color="accent" id="icon-0"><path d="M50 18.3c-17.9 0-32.5 14.6-32.5 32.5S32.1 83.3 50 83.3s32.5-14.6 32.5-32.5S67.9 18.3 50 18.3zM42.2 80.2c12-3.8 29.8-2.7 37.2-34.2C79.4 46 83.7 82.5 42.2 80.2z" fill="#85144b" data-fill-palette-color="accent"></path></svg></g></svg></g></svg></g><defs></defs></svg><rect width="395.52" height="128.88142803068894" fill="none" stroke="none" visibility="hidden"></rect></g></svg></g></svg>